<svg width="10" height="12" viewBox="0 0 10 12" fill="none" xmlns="http://www.w3.org/2000/svg">
<path fill-rule="evenodd" clip-rule="evenodd" d="M6.33334 2.66667C6.33334 1.93133 5.73534 1.33333 5.00001 1.33333C4.26468 1.33333 3.66668 1.93133 3.66668 2.66667C3.66668 3.402 4.26468 4 5.00001 4C5.73534 4 6.33334 3.402 6.33334 2.66667ZM7.66668 2.66667C7.66668 4.13733 6.47068 5.33333 5.00001 5.33333C3.52934 5.33333 2.33334 4.13733 2.33334 2.66667C2.33334 1.196 3.52934 0 5.00001 0C6.47068 0 7.66668 1.196 7.66668 2.66667ZM0.333344 11.3333C0.333344 8.76 2.42734 6.66667 5.00001 6.66667C7.57268 6.66667 9.66668 8.76 9.66668 11.3333C9.66668 11.7013 9.36868 12 9.00001 12C8.63134 12 8.33334 11.7013 8.33334 11.3333C8.33334 9.49533 6.83801 8 5.00001 8C3.16201 8 1.66668 9.49533 1.66668 11.3333C1.66668 11.7013 1.36868 12 1.00001 12C0.631344 12 0.333344 11.7013 0.333344 11.3333Z" fill="#231F20"/>
</svg>
